<?xml version="1.0" encoding="UTF-8"?><svg id="ELEMENTS" xmlns="http://www.w3.org/2000/svg" viewBox="0 0 29.24 29.24"><defs><style>.cls-1{fill:#666;}</style></defs><path class="cls-1" d="m14.69,11.92c-1.49,0-2.7,1.21-2.7,2.7s1.21,2.7,2.7,2.7,2.7-1.21,2.7-2.7-1.21-2.7-2.7-2.7Z"/><path class="cls-1" d="m18.04,7.66h-6.84c-1.95,0-3.54,1.59-3.54,3.54v6.84c0,1.95,1.59,3.54,3.54,3.54h6.84c1.95,0,3.54-1.59,3.54-3.54v-6.84c0-1.95-1.59-3.54-3.54-3.54Zm-3.35,11.18c-2.33,0-4.22-1.89-4.22-4.22s1.89-4.22,4.22-4.22,4.22,1.89,4.22,4.22-1.89,4.22-4.22,4.22Zm4.47-7.72c-.55,0-1-.45-1-1.01s.45-1.01,1-1.01,1.01.45,1.01,1.01-.45,1.01-1.01,1.01Z"/><path class="cls-1" d="m21.59,0H7.65c-4.21,0-7.65,3.44-7.65,7.65v13.94c0,4.21,3.44,7.65,7.65,7.65h13.94c4.21,0,7.65-3.44,7.65-7.65V7.65C29.24,3.44,25.8,0,21.59,0Zm1.6,18.04c0,2.84-2.31,5.15-5.15,5.15h-6.84c-2.84,0-5.15-2.31-5.15-5.15v-6.84c0-2.84,2.31-5.15,5.15-5.15h6.84c2.84,0,5.15,2.31,5.15,5.15v6.84Z"/></svg>